# xmcd
#
# Track frame offsets:
#	150
#	17702
#	33165
#	50999
#	73717
#	92116
#	107169
#	124822
#	142652
#	159120
#	176410
#	192115
#	217010
#
# Disc length: 3132 seconds
#
# Revision: 1
# Processed by: cddbd v1.5.2PL0 Copyright (c) Steve Scherf et al.
# Submitted via: audiograbber 1.83.01
#
DISCID=af0c3a0d
DTITLE=Prinz Pi - Illuminati
DYEAR=2010
DGENRE=Rap
TTITLE0=Grabstein (Intro)
TTITLE1=Illuminati Reflux
TTITLE2=Illuminati Res Medias
TTITLE3=2013 (feat. Basstard)
TTITLE4=Mann vom Mars
TTITLE5=Die letzte Frage
TTITLE6=Party ist over (feat. Justus)
TTITLE7=Wenn es Nacht wird (feat. Grzegorz)
TTITLE8=Ob ich will oder nicht
TTITLE9=Unendlich sein (feat. Caspar)
TTITLE10=Nie wieder (feat. Caspar) - Bonus
TTITLE11=Ode an den Tiger (feat. Jonarama E-Rich Caspar) - Bonus
TTITLE12=Grund zum feiern (feat. 333SDK) - Bonus
EXTD=
EXTT0=
EXTT1=
EXTT2=
EXTT3=
EXTT4=
EXTT5=
EXTT6=
EXTT7=
EXTT8=
EXTT9=
EXTT10=
EXTT11=
EXTT12=
PLAYORDER=
